<svg width="131" height="32" viewBox="0 0 131 32" fill="none" xmlns="http://www.w3.org/2000/svg">
<g clip-path="url(#clip0_1_493)">
<path d="M3.21826 11.7243H0.356445V7.15092H3.21826V3.33557H8.74514V7.15092H11.6069V11.7243H8.74514V16.9977C8.74514 17.8426 9.10724 18.2047 10.0354 18.2047H11.6347V22.8903H9.24966C5.77107 22.8903 3.21464 21.431 3.21464 16.9144L3.21826 11.7243Z" fill="#151A30"/>
<path d="M24.9371 7.151H30.9721L20.9817 30.381H15.0058L18.7656 22.2169L12.313 7.151H18.4289L21.7397 16.0732L24.9371 7.151Z" fill="#151A30"/>
<path d="M42.0537 6.95422C45.8123 6.95422 48.7586 9.98502 48.7586 15.0062C48.7586 20.0273 45.8123 23.0859 42.0537 23.0859C39.8364 23.0859 38.2939 22.0768 37.4526 20.702V30.4088H31.9535V7.15097H37.4526V9.33927C38.2661 7.93673 39.8654 6.95422 42.0537 6.95422ZM40.3144 11.7521C38.7707 11.7521 37.4526 12.9023 37.4526 15.011C37.4526 17.1438 38.7707 18.294 40.3144 18.294C41.8582 18.294 43.175 17.116 43.175 15.011C43.175 12.8746 41.857 11.7521 40.3144 11.7521Z" fill="#151A30"/>
<path d="M57.8607 23.0859C53.2041 23.0859 49.8655 20.0285 49.8655 15.0062C49.8655 10.0128 53.1473 6.95422 57.8607 6.95422C62.5173 6.95422 65.8004 9.95605 65.8004 14.8384C65.8002 15.2698 65.7724 15.7008 65.7171 16.1287H55.3079C55.4201 17.9525 56.4026 18.6815 57.6362 18.6815C58.7032 18.6815 59.2922 18.0925 59.6 17.4467H65.4636C64.7346 20.6731 61.7931 23.0859 57.8607 23.0859ZM55.3356 13.4636H60.189C60.189 12.0611 59.0955 11.3031 57.8329 11.3031C56.5149 11.3031 55.5891 12.0321 55.3356 13.4636Z" fill="#151A30"/>
<path d="M73.1173 22.8903H67.6182V7.15099H73.1173V9.9271C74.2953 8.21556 76.0901 7.00977 78.1952 7.00977V12.8746H76.6514C74.3786 12.8746 73.1173 13.5988 73.1173 16.0128V22.8903Z" fill="#151A30"/>
<path d="M85.6593 6.95422C87.9043 6.95422 89.4746 7.93673 90.2881 9.33927V7.15097H95.7873V22.8903H90.2881V20.702C89.4746 22.1046 87.8741 23.0859 85.6593 23.0859C81.9284 23.0859 78.9543 20.0285 78.9543 15.0062C78.9543 9.98381 81.9284 6.95422 85.6593 6.95422ZM87.4263 11.7521C85.8572 11.7521 84.5657 12.8746 84.5657 15.011C84.5657 17.116 85.856 18.294 87.4263 18.294C88.9701 18.294 90.2881 17.1438 90.2881 15.011C90.2881 12.9072 88.9701 11.7521 87.4263 11.7521Z" fill="#151A30"/>
<path d="M112.352 6.95422C114.596 6.95422 116.167 7.93673 116.981 9.33927V7.15097H122.48V22.8903H116.981V20.702C116.167 22.1046 114.567 23.0859 112.352 23.0859C108.621 23.0859 105.647 20.0285 105.647 15.0062C105.647 9.98381 108.625 6.95422 112.352 6.95422ZM114.119 11.7521C112.55 11.7521 111.257 12.8746 111.257 15.011C111.257 17.116 112.549 18.294 114.119 18.294C115.663 18.294 116.981 17.1438 116.981 15.011C116.981 12.9072 115.663 11.7521 114.119 11.7521Z" fill="#FF4000"/>
<path d="M130.713 7.151V22.8904H125.216V7.151C125.872 7.80854 126.742 8.20899 127.668 8.27955H128.271C129.194 8.20884 130.061 7.80824 130.713 7.151Z" fill="#FF4000"/>
<path d="M127.965 6.45459C129.483 6.45459 130.713 5.22411 130.713 3.70624C130.713 2.18837 129.483 0.957886 127.965 0.957886C126.447 0.957886 125.216 2.18837 125.216 3.70624C125.216 5.22411 126.447 6.45459 127.965 6.45459Z" fill="#FF4000"/>
<path d="M101.386 22.9457C102.912 22.9457 104.149 21.7088 104.149 20.1829C104.149 18.657 102.912 17.42 101.386 17.42C99.8605 17.42 98.6235 18.657 98.6235 20.1829C98.6235 21.7088 99.8605 22.9457 101.386 22.9457Z" fill="#FF4000"/>
</g>
<defs>
<clipPath id="clip0_1_493">
<rect width="130.357" height="29.4509" fill="white" transform="translate(0.356445 0.957886)"/>
</clipPath>
</defs>
</svg>
